<svg xmlns="http://www.w3.org/2000/svg" viewBox="0 0 512 512">
  <circle cx="256" cy="256" r="256" fill="#0366d6"/>
  <!-- Book shape -->
  <rect x="140" y="140" width="180" height="230" rx="12" fill="white" opacity="0.15"/>
  <rect x="148" y="148" width="164" height="214" rx="8" fill="white"/>
  <rect x="170" y="185" width="120" height="8" rx="4" fill="#0366d6"/>
  <rect x="170" y="207" width="100" height="6" rx="3" fill="#0366d6" opacity="0.6"/>
  <rect x="170" y="223" width="110" height="6" rx="3" fill="#0366d6" opacity="0.6"/>
  <rect x="170" y="239" width="90" height="6" rx="3" fill="#0366d6" opacity="0.4"/>
  <!-- AI sparkle top right -->
  <g transform="translate(310, 150)">
    <polygon points="0,-22 5,-5 22,0 5,5 0,22 -5,5 -22,0 -5,-5" fill="#FFD700"/>
    <polygon points="0,-12 3,-3 12,0 3,3 0,12 -3,3 -12,0 -3,-3" fill="white" opacity="0.8" transform="translate(28,28) scale(0.6)"/>
  </g>
  <!-- Spine of book -->
  <rect x="140" y="148" width="18" height="214" rx="4" fill="#0366d6" opacity="0.3"/>
</svg>
